<svg width="45" height="45" viewBox="0 0 45 45" fill="none" xmlns="http://www.w3.org/2000/svg">
<rect x="0.863281" y="0.0185547" width="44" height="44" rx="4" fill="white"/>
<rect x="1.36328" y="0.518555" width="43" height="43" rx="3.5" stroke="black" stroke-opacity="0.2"/>
<path fill-rule="evenodd" clip-rule="evenodd" d="M14.1133 16.0186C14.1133 14.4769 15.3436 13.283 16.871 12.5193C18.4433 11.7332 20.563 11.2686 22.8633 11.2686C25.1636 11.2686 27.2832 11.7332 28.8555 12.5193C30.383 13.283 31.6133 14.4769 31.6133 16.0186V28.0186C31.6133 29.5602 30.383 30.7541 28.8555 31.5178C27.2832 32.304 25.1636 32.7686 22.8633 32.7686C20.563 32.7686 18.4433 32.304 16.871 31.5178C15.3436 30.7541 14.1133 29.5602 14.1133 28.0186V16.0186ZM15.6133 16.0186C15.6133 15.3511 16.1739 14.5449 17.5418 13.8609C18.865 13.1994 20.7453 12.7686 22.8633 12.7686C24.9812 12.7686 26.8616 13.1994 28.1847 13.8609C29.5527 14.5449 30.1133 15.3511 30.1133 16.0186C30.1133 16.686 29.5527 17.4922 28.1847 18.1762C26.8616 18.8377 24.9812 19.2686 22.8633 19.2686C20.7453 19.2686 18.865 18.8377 17.5418 18.1762C16.1739 17.4922 15.6133 16.686 15.6133 16.0186ZM15.6133 28.0186C15.6133 28.686 16.1739 29.4922 17.5418 30.1762C18.865 30.8377 20.7453 31.2686 22.8633 31.2686C24.9812 31.2686 26.8616 30.8377 28.1847 30.1762C29.5527 29.4922 30.1133 28.686 30.1133 28.0186V24.7258C29.7365 25.0263 29.3091 25.291 28.8555 25.5178C27.2832 26.304 25.1636 26.7686 22.8633 26.7686C20.563 26.7686 18.4433 26.304 16.871 25.5178C16.4174 25.291 15.99 25.0263 15.6133 24.7258V28.0186ZM30.1133 18.7258V22.0186C30.1133 22.686 29.5527 23.4922 28.1847 24.1762C26.8616 24.8377 24.9812 25.2686 22.8633 25.2686C20.7453 25.2686 18.865 24.8377 17.5418 24.1762C16.1739 23.4922 15.6133 22.686 15.6133 22.0186V18.7258C15.99 19.0263 16.4174 19.291 16.871 19.5178C18.4433 20.304 20.563 20.7686 22.8633 20.7686C25.1636 20.7686 27.2832 20.304 28.8555 19.5178C29.3091 19.291 29.7365 19.0263 30.1133 18.7258Z" fill="#486BAF"/>
</svg>
