<svg width="44" height="44" viewBox="0 0 44 44" fill="none" xmlns="http://www.w3.org/2000/svg">
<rect width="44" height="44" rx="4" fill="white"/>
<rect x="0.5" y="0.5" width="43" height="43" rx="3.5" stroke="black" stroke-opacity="0.2"/>
<path fill-rule="evenodd" clip-rule="evenodd" d="M15.2501 16C15.2501 13.3766 17.3768 11.25 20.0001 11.25C22.6235 11.25 24.7501 13.3766 24.7501 16C24.7501 18.6234 22.6235 20.75 20.0001 20.75C17.3768 20.75 15.2501 18.6234 15.2501 16ZM20.0001 12.75C18.2052 12.75 16.7501 14.2051 16.7501 16C16.7501 17.7949 18.2052 19.25 20.0001 19.25C21.7951 19.25 23.2501 17.7949 23.2501 16C23.2501 14.2051 21.7951 12.75 20.0001 12.75Z" fill="#486BAF"/>
<path fill-rule="evenodd" clip-rule="evenodd" d="M13.9756 23.6643C15.5551 22.7759 17.6866 22.25 20.0001 22.25C22.3137 22.25 24.4452 22.7759 26.0247 23.6643C27.5807 24.5396 28.7501 25.8661 28.7501 27.5L28.7502 27.602C28.7513 28.7638 28.7527 30.222 27.4737 31.2635C26.8443 31.7761 25.9637 32.1406 24.7739 32.3815C23.5809 32.6229 22.0259 32.75 20.0001 32.75C17.9744 32.75 16.4194 32.6229 15.2263 32.3815C14.0366 32.1406 13.156 31.7761 12.5265 31.2635C11.2475 30.222 11.2489 28.7638 11.2501 27.602L11.2501 27.5C11.2501 25.8661 12.4196 24.5396 13.9756 23.6643ZM14.711 24.9717C13.3715 25.7251 12.7501 26.6487 12.7501 27.5C12.7501 28.8078 12.7904 29.544 13.4737 30.1004C13.8443 30.4022 14.4637 30.6967 15.5239 30.9113C16.5809 31.1252 18.0259 31.25 20.0001 31.25C21.9744 31.25 23.4194 31.1252 24.4763 30.9113C25.5366 30.6967 26.156 30.4022 26.5265 30.1004C27.2098 29.544 27.2501 28.8078 27.2501 27.5C27.2501 26.6487 26.6288 25.7251 25.2893 24.9717C23.9733 24.2315 22.1049 23.75 20.0001 23.75C17.8954 23.75 16.0269 24.2315 14.711 24.9717Z" fill="#486BAF"/>
<path fill-rule="evenodd" clip-rule="evenodd" d="M26.6904 17.4469C27.411 17.128 28.248 17.1885 29.0001 17.6789C29.7523 17.1885 30.5892 17.128 31.3099 17.4469C32.1649 17.8253 32.7501 18.6993 32.7501 19.6997C32.7501 20.6481 32.3359 21.362 31.8396 21.9031C31.4522 22.3254 30.973 22.682 30.5946 22.9636C30.5133 23.0241 30.4367 23.0812 30.3666 23.1347L30.3646 23.1362C30.2159 23.2497 30.0236 23.3965 29.8209 23.5111C29.6169 23.6265 29.3345 23.75 29.0001 23.75C28.6658 23.75 28.3834 23.6265 28.1794 23.5111C27.9767 23.3965 27.7843 23.2497 27.6356 23.1362L27.6336 23.1347C27.5636 23.0812 27.487 23.0242 27.4058 22.9638C27.0274 22.6821 26.5481 22.3254 26.1607 21.9031C25.6644 21.362 25.2501 20.6481 25.2501 19.6997C25.2501 18.6993 25.8353 17.8253 26.6904 17.4469ZM26.7501 19.6997C26.7501 19.2878 26.99 18.9547 27.2974 18.8186C27.5637 18.7008 27.9875 18.6887 28.4683 19.1723C28.609 19.3139 28.8005 19.3935 29.0001 19.3935C29.1998 19.3935 29.3912 19.3139 29.532 19.1723C30.0128 18.6887 30.4366 18.7008 30.7029 18.8186C31.0103 18.9547 31.2501 19.2878 31.2501 19.6997C31.2501 20.1638 31.0614 20.5324 30.7342 20.8891C30.4522 21.1966 30.1158 21.448 29.7439 21.7259C29.6503 21.7959 29.5544 21.8676 29.4566 21.9423C29.2941 22.0663 29.1815 22.1495 29.0823 22.2056C29.0422 22.2283 29.0155 22.2399 29.0001 22.2456C28.9848 22.2399 28.9581 22.2283 28.918 22.2056C28.8188 22.1495 28.7062 22.0663 28.5437 21.9423C28.4459 21.8676 28.35 21.796 28.2564 21.726C27.8845 21.448 27.5481 21.1966 27.2661 20.8891C26.9388 20.5324 26.7501 20.1638 26.7501 19.6997Z" fill="#486BAF"/>
</svg>
