<svg width="44" height="44" viewBox="0 0 44 44" fill="none" xmlns="http://www.w3.org/2000/svg">
<rect width="44" height="44" rx="4" fill="white"/>
<rect x="0.5" y="0.5" width="43" height="43" rx="3.5" stroke="black" stroke-opacity="0.2"/>
<path fill-rule="evenodd" clip-rule="evenodd" d="M25.6347 12.1243C25.9618 11.2919 27.1377 11.2919 27.4648 12.1243L27.8928 13.2135L28.9775 13.6429C29.8068 13.9712 29.8068 15.1471 28.9775 15.4754L27.8928 15.9048L27.4648 16.994C27.1377 17.8265 25.9618 17.8265 25.6347 16.994L25.2067 15.9048L24.122 15.4754C23.2927 15.1471 23.2927 13.9712 24.122 13.6429L25.2067 13.2135L25.6347 12.1243ZM26.5497 12.5299L26.9645 13.5853C27.0641 13.8389 27.2644 14.0403 27.5181 14.1407L28.5752 14.5592L27.5181 14.9776C27.2644 15.0781 27.0641 15.2794 26.9645 15.533L26.5497 16.5885L26.135 15.533C26.0354 15.2794 25.8351 15.0781 25.5813 14.9776L24.5243 14.5592L25.5813 14.1407C25.8351 14.0403 26.0354 13.8389 26.135 13.5853L26.5497 12.5299Z" fill="#486BAF"/>
<path fill-rule="evenodd" clip-rule="evenodd" d="M13.3142 13.3142C14.7331 11.8953 17.0337 11.8953 18.4526 13.3142L30.6858 25.5474C32.1047 26.9663 32.1047 29.2669 30.6858 30.6858C29.2669 32.1047 26.9663 32.1047 25.5474 30.6858L13.3142 18.4526C11.8953 17.0337 11.8953 14.7331 13.3142 13.3142ZM17.3919 14.3749C16.5588 13.5417 15.208 13.5417 14.3749 14.3749C13.5417 15.208 13.5417 16.5588 14.3749 17.3919L15.9611 18.9782L18.9782 15.9611L17.3919 14.3749ZM26.6081 29.6251L17.0218 20.0389L20.0389 17.0218L29.6251 26.6081C30.4583 27.4412 30.4583 28.792 29.6251 29.6251C28.792 30.4583 27.4412 30.4583 26.6081 29.6251Z" fill="#486BAF"/>
<path fill-rule="evenodd" clip-rule="evenodd" d="M31.332 18.9466C31.0049 18.1142 29.8289 18.1142 29.5018 18.9466L29.3473 19.3399L28.956 19.4948C28.1266 19.8231 28.1266 20.999 28.956 21.3273L29.3473 21.4822L29.5018 21.8755C29.8289 22.7079 31.0049 22.7079 31.332 21.8755L31.4865 21.4822L31.8778 21.3273C32.7071 20.999 32.7071 19.8231 31.8778 19.4948L31.4865 19.3399L31.332 18.9466ZM30.4169 19.3522L30.2756 19.7117C30.176 19.9652 29.9757 20.1666 29.7219 20.2671L29.3583 20.411L29.7219 20.555C29.9757 20.6555 30.176 20.8568 30.2756 21.1104L30.4169 21.4699L30.5582 21.1104C30.6578 20.8568 30.858 20.6555 31.1118 20.555L31.4755 20.411L31.1118 20.2671C30.858 20.1666 30.6578 19.9652 30.5582 19.7117L30.4169 19.3522Z" fill="#486BAF"/>
<path fill-rule="evenodd" clip-rule="evenodd" d="M14.6678 25.1243C14.9949 24.2919 16.1709 24.2919 16.498 25.1243L16.6525 25.5176L17.0438 25.6725C17.8732 26.0008 17.8732 27.1767 17.0438 27.505L16.6525 27.6599L16.498 28.0532C16.1709 28.8856 14.9949 28.8856 14.6678 28.0532L14.5133 27.6599L14.122 27.505C13.2927 27.1767 13.2927 26.0008 14.122 25.6725L14.5133 25.5176L14.6678 25.1243ZM15.4416 25.8894L15.5829 25.5299L15.7242 25.8894C15.8238 26.143 16.0241 26.3443 16.2778 26.4448L16.6415 26.5888L16.2778 26.7327C16.0241 26.8332 15.8238 27.0345 15.7242 27.2881L15.5829 27.6476L15.4416 27.2881C15.342 27.0345 15.1417 26.8332 14.888 26.7327L14.5243 26.5888L14.888 26.4448C15.1417 26.3443 15.342 26.143 15.4416 25.8894Z" fill="#486BAF"/>
</svg>
