<svg width="32" height="141" viewBox="0 0 32 141" fill="none" xmlns="http://www.w3.org/2000/svg">
<path d="M16.5 109.992L16.5 -0.00781775" stroke="url(#paint0_linear_9607_2756)" stroke-width="2"/>
<rect y="109.992" width="32" height="31" rx="15.5" fill="url(#paint1_linear_9607_2756)"/>
<path d="M11.8 132.492V131.132L15.064 127.644C15.704 126.962 16.2053 126.412 16.568 125.996C16.9413 125.57 17.208 125.196 17.368 124.876C17.5387 124.556 17.624 124.22 17.624 123.868C17.624 123.292 17.448 122.85 17.096 122.54C16.744 122.22 16.2907 122.06 15.736 122.06C15.16 122.06 14.664 122.226 14.248 122.556C13.832 122.876 13.544 123.346 13.384 123.964L11.72 123.484C11.848 122.855 12.104 122.311 12.488 121.852C12.872 121.383 13.3413 121.02 13.896 120.764C14.4613 120.508 15.0693 120.38 15.72 120.38C16.4773 120.38 17.1387 120.524 17.704 120.812C18.2693 121.09 18.7067 121.479 19.016 121.98C19.336 122.482 19.496 123.063 19.496 123.724C19.496 124.162 19.4107 124.588 19.24 125.004C19.08 125.41 18.8293 125.842 18.488 126.3C18.1467 126.748 17.7093 127.255 17.176 127.82L14.296 130.892H19.72V132.492H11.8Z" fill="white"/>
<defs>
<linearGradient id="paint0_linear_9607_2756" x1="17.1737" y1="71.7243" x2="-25.9871" y2="34.8415" gradientUnits="userSpaceOnUse">
<stop stop-color="#00B9ED"/>
<stop offset="1" stop-color="#AAFDEF"/>
</linearGradient>
<linearGradient id="paint1_linear_9607_2756" x1="11.1325" y1="130.878" x2="36.552" y2="130.598" gradientUnits="userSpaceOnUse">
<stop stop-color="#00B9ED"/>
<stop offset="1" stop-color="#AAFDEF"/>
</linearGradient>
</defs>
</svg>
