<svg width="32" height="141" viewBox="0 0 32 141" fill="none" xmlns="http://www.w3.org/2000/svg">
<path d="M16.5 110L16.5 -5.24521e-06" stroke="url(#paint0_linear_9607_2761)" stroke-width="2"/>
<rect y="110" width="32" height="31" rx="15.5" fill="url(#paint1_linear_9607_2761)"/>
<path d="M15.688 132.692C15.048 132.692 14.4453 132.575 13.88 132.34C13.3253 132.105 12.8453 131.775 12.44 131.348C12.0453 130.921 11.7627 130.42 11.592 129.844L13.192 129.236C13.4053 129.801 13.7307 130.239 14.168 130.548C14.6053 130.857 15.112 131.012 15.688 131.012C16.1573 131.012 16.5627 130.921 16.904 130.74C17.256 130.559 17.528 130.303 17.72 129.972C17.9227 129.641 18.024 129.241 18.024 128.772C18.024 128.313 17.9227 127.919 17.72 127.588C17.528 127.257 17.256 127.007 16.904 126.836C16.5627 126.665 16.1573 126.58 15.688 126.58C15.496 126.58 15.2987 126.596 15.096 126.628C14.904 126.66 14.7333 126.703 14.584 126.756L14.168 125.876L17.304 122.18H12.232V120.58H19.416V122.1L16.344 125.78L16.296 125.172C17.0107 125.183 17.64 125.343 18.184 125.652C18.728 125.951 19.1493 126.367 19.448 126.9C19.7573 127.423 19.912 128.031 19.912 128.724C19.912 129.471 19.7307 130.148 19.368 130.756C19.0053 131.353 18.504 131.828 17.864 132.18C17.2347 132.521 16.5093 132.692 15.688 132.692Z" fill="white"/>
<defs>
<linearGradient id="paint0_linear_9607_2761" x1="17.1737" y1="71.7321" x2="-25.9871" y2="34.8493" gradientUnits="userSpaceOnUse">
<stop stop-color="#00B9ED"/>
<stop offset="1" stop-color="#AAFDEF"/>
</linearGradient>
<linearGradient id="paint1_linear_9607_2761" x1="11.1325" y1="130.885" x2="36.552" y2="130.606" gradientUnits="userSpaceOnUse">
<stop stop-color="#00B9ED"/>
<stop offset="1" stop-color="#AAFDEF"/>
</linearGradient>
</defs>
</svg>
