<svg width="24" height="24" viewBox="0 0 24 25" fill="none" xmlns="http://www.w3.org/2000/svg">
<g clip-path="url(#clip0_9591_5736)">
<path style="mix-blend-mode:screen" d="M9 6.99219C9 6.8196 8.86009 6.67969 8.6875 6.67969C7.65196 6.67969 6.8125 5.84023 6.8125 4.80469C6.8125 4.6321 6.67259 4.49219 6.5 4.49219C6.32741 4.49219 6.1875 4.6321 6.1875 4.80469C6.1875 5.84023 5.34804 6.67969 4.3125 6.67969C4.13991 6.67969 4 6.8196 4 6.99219C4 7.16478 4.13991 7.30469 4.3125 7.30469C5.34804 7.30469 6.1875 8.14415 6.1875 9.17969C6.1875 9.35228 6.32741 9.49219 6.5 9.49219C6.67259 9.49219 6.8125 9.35228 6.8125 9.17969C6.8125 8.14415 7.65196 7.30469 8.6875 7.30469C8.86009 7.30469 9 7.16478 9 6.99219Z" fill="url(#paint0_linear_9591_5736)"/>
<path d="M9 6.99219C9 6.8196 8.86009 6.67969 8.6875 6.67969C7.65196 6.67969 6.8125 5.84023 6.8125 4.80469C6.8125 4.6321 6.67259 4.49219 6.5 4.49219C6.32741 4.49219 6.1875 4.6321 6.1875 4.80469C6.1875 5.84023 5.34804 6.67969 4.3125 6.67969C4.13991 6.67969 4 6.8196 4 6.99219C4 7.16478 4.13991 7.30469 4.3125 7.30469C5.34804 7.30469 6.1875 8.14415 6.1875 9.17969C6.1875 9.35228 6.32741 9.49219 6.5 9.49219C6.67259 9.49219 6.8125 9.35228 6.8125 9.17969C6.8125 8.14415 7.65196 7.30469 8.6875 7.30469C8.86009 7.30469 9 7.16478 9 6.99219Z" fill="white" fill-opacity="0.5"/>
<path style="mix-blend-mode:screen" d="M16.5 6.49219C16.5 6.21605 16.2761 5.99219 16 5.99219C15.7239 5.99219 15.5 6.21605 15.5 6.49219C15.5 8.97707 13.4852 10.9922 11 10.9922C10.7239 10.9922 10.5 11.2161 10.5 11.4922C10.5 11.7683 10.7239 11.9922 11 11.9922C13.4853 11.9922 15.5 14.0064 15.5 16.4922C15.5 16.7683 15.7239 16.9922 16 16.9922C16.2761 16.9922 16.5 16.7683 16.5 16.4922C16.5 14.0063 18.5141 11.9922 21 11.9922C21.2761 11.9922 21.5 11.7683 21.5 11.4922C21.5 11.2161 21.2761 10.9922 21 10.9922C18.5142 10.9922 16.5 8.97711 16.5 6.49219Z" fill="url(#paint1_linear_9591_5736)"/>
<path d="M16.5 6.49219C16.5 6.21605 16.2761 5.99219 16 5.99219C15.7239 5.99219 15.5 6.21605 15.5 6.49219C15.5 8.97707 13.4852 10.9922 11 10.9922C10.7239 10.9922 10.5 11.2161 10.5 11.4922C10.5 11.7683 10.7239 11.9922 11 11.9922C13.4853 11.9922 15.5 14.0064 15.5 16.4922C15.5 16.7683 15.7239 16.9922 16 16.9922C16.2761 16.9922 16.5 16.7683 16.5 16.4922C16.5 14.0063 18.5141 11.9922 21 11.9922C21.2761 11.9922 21.5 11.7683 21.5 11.4922C21.5 11.2161 21.2761 10.9922 21 10.9922C18.5142 10.9922 16.5 8.97711 16.5 6.49219Z" fill="white" fill-opacity="0.5"/>
<path style="mix-blend-mode:screen" d="M7.5 12.9922C7.5 12.7161 7.27614 12.4922 7 12.4922C6.72386 12.4922 6.5 12.7161 6.5 12.9922C6.5 14.6491 5.15686 15.9922 3.5 15.9922C3.22386 15.9922 3 16.2161 3 16.4922C3 16.7683 3.22386 16.9922 3.5 16.9922C5.15686 16.9922 6.5 18.3353 6.5 19.9922C6.5 20.2683 6.72386 20.4922 7 20.4922C7.27614 20.4922 7.5 20.2683 7.5 19.9922C7.5 18.3353 8.84314 16.9922 10.5 16.9922C10.7761 16.9922 11 16.7683 11 16.4922C11 16.2161 10.7761 15.9922 10.5 15.9922C8.84314 15.9922 7.5 14.6491 7.5 12.9922Z" fill="url(#paint2_linear_9591_5736)"/>
<path d="M7.5 12.9922C7.5 12.7161 7.27614 12.4922 7 12.4922C6.72386 12.4922 6.5 12.7161 6.5 12.9922C6.5 14.6491 5.15686 15.9922 3.5 15.9922C3.22386 15.9922 3 16.2161 3 16.4922C3 16.7683 3.22386 16.9922 3.5 16.9922C5.15686 16.9922 6.5 18.3353 6.5 19.9922C6.5 20.2683 6.72386 20.4922 7 20.4922C7.27614 20.4922 7.5 20.2683 7.5 19.9922C7.5 18.3353 8.84314 16.9922 10.5 16.9922C10.7761 16.9922 11 16.7683 11 16.4922C11 16.2161 10.7761 15.9922 10.5 15.9922C8.84314 15.9922 7.5 14.6491 7.5 12.9922Z" fill="white" fill-opacity="0.5"/>
</g>
<defs>
<linearGradient id="paint0_linear_9591_5736" x1="4" y1="9.49219" x2="15.5625" y2="9.49375" gradientUnits="userSpaceOnUse">
<stop stop-color="white"/>
<stop offset="0.5" stop-color="white"/>
<stop offset="0.945" stop-color="#65CFE3"/>
</linearGradient>
<linearGradient id="paint1_linear_9591_5736" x1="10.5" y1="16.9922" x2="35.9375" y2="16.9956" gradientUnits="userSpaceOnUse">
<stop stop-color="white"/>
<stop offset="0.5" stop-color="white"/>
<stop offset="0.945" stop-color="#65CFE3"/>
</linearGradient>
<linearGradient id="paint2_linear_9591_5736" x1="3" y1="20.4922" x2="21.5" y2="20.4947" gradientUnits="userSpaceOnUse">
<stop stop-color="white"/>
<stop offset="0.5" stop-color="white"/>
<stop offset="0.945" stop-color="#65CFE3"/>
</linearGradient>
<clipPath id="clip0_9591_5736">
<rect width="24" height="24" fill="white" transform="translate(0 0.492188)"/>
</clipPath>
</defs>
</svg>
