<svg width="44" height="37" viewBox="0 0 44 37" fill="none" xmlns="http://www.w3.org/2000/svg">
<rect y="0.543701" width="44" height="36" rx="4" fill="#FF4545"/>
<path d="M22 6.5437C15.37 6.5437 10 11.9137 10 18.5437C10 25.1737 15.37 30.5437 22 30.5437C28.63 30.5437 34 25.1737 34 18.5437C34 11.9137 28.63 6.5437 22 6.5437ZM22 9.5437C22.99 9.5437 23.92 9.8137 24.82 10.1137C24.19 10.7137 23.47 11.2537 23.59 11.7937C23.71 12.3337 25.66 12.1837 25.66 13.2937C25.66 14.1037 24.4 14.3437 25.27 15.2737C26.32 16.3237 23.35 18.2137 23.29 19.5937C23.2 22.0837 25.81 22.5037 27.88 22.5037C29.14 22.5037 29.47 23.1037 29.38 23.8237C27.76 26.1337 25 27.5737 21.97 27.5737C20.83 27.5737 19.78 27.3037 18.79 26.9137C19.45 25.5937 17.95 22.9837 16.54 22.1437C15.85 21.4537 14.38 21.7237 13.54 21.3937C13.27 20.5837 13 19.7737 12.97 18.8737C13.06 18.7237 13.21 18.6037 13.45 18.6037C14.02 18.6037 14.8 19.7437 15.22 19.6237C15.76 19.5037 13 15.6937 14.29 14.9437C14.89 14.5837 16.09 16.1137 15.7 14.4637C15.34 12.9337 16.78 13.6237 17.68 13.2337C18.46 12.9037 19.03 12.0037 18.07 11.4637C17.89 11.3737 17.68 11.1637 17.41 10.8937C18.76 10.0837 20.32 9.5737 22 9.5737V9.5437ZM28.93 12.8137C29.47 13.4737 29.89 14.1937 30.25 14.9737V15.0637C30.13 15.2737 29.92 15.3937 29.59 15.7237C28.75 16.5637 28.63 15.0937 28.27 14.7937C27.88 14.4337 26.47 14.8537 26.29 14.4037C26.08 13.8637 27.79 13.1437 28.93 12.8137Z" fill="white"/>
</svg>
