<svg width="44" height="37" viewBox="0 0 44 37" fill="none" xmlns="http://www.w3.org/2000/svg">
<rect y="0.543701" width="44" height="35.9626" rx="4" fill="#FFB83F"/>
<path d="M26.4911 6.5437C22.3627 6.5437 19.0122 9.89428 19.0122 14.0227C19.0122 14.98 19.2515 15.8774 19.5806 16.745L10.875 25.3608C9.70832 26.5275 9.70832 28.5019 10.875 29.6687C11.4734 30.267 12.2512 30.5063 13.029 30.5063C13.8068 30.5063 14.5846 30.2371 15.1829 29.6687L23.7987 20.9631C24.6363 21.2922 25.5338 21.5315 26.521 21.5315C30.6494 21.5315 34 18.181 34 14.0526C34 13.5739 34 13.0953 33.9103 12.6465L31.0084 15.5484H25.0252V9.5652L27.9271 6.66336C27.4783 6.57362 26.9997 6.57362 26.521 6.57362L26.4911 6.5437ZM13.029 25.989C13.8666 25.989 14.5248 26.6472 14.5248 27.4848C14.5248 28.3224 13.8666 28.9806 13.029 28.9806C12.1913 28.9806 11.5332 28.3224 11.5332 27.4848C11.5332 26.6472 12.1913 25.989 13.029 25.989Z" fill="white"/>
</svg>
