<svg width="44" height="40" viewBox="0 0 44 40" fill="none" xmlns="http://www.w3.org/2000/svg">
<rect y="0.543701" width="44" height="39.3894" rx="4" fill="#65CFE3"/>
<path d="M16.8474 6.5437V9.96738H20.271V10.0701C14.4508 10.8918 10 15.9246 10 21.9503C10 28.558 15.3752 33.9331 21.9829 33.9331C28.5906 33.9331 33.9658 28.558 33.9658 21.9503C33.9658 20.4096 33.6234 18.9717 33.1098 17.6707L29.9943 18.9717C30.3709 19.9645 30.5421 20.9232 30.5421 21.9845C30.5421 26.7434 26.7418 30.5437 21.9829 30.5437C17.224 30.5437 13.4237 26.7434 13.4237 21.9845C13.4237 17.2256 17.224 13.4253 21.9829 13.4253C23.01 13.4253 24.0029 13.5965 24.9957 13.9731L26.1598 10.7548C25.3723 10.4809 24.5506 10.344 23.6947 10.207V10.0016H27.1184V6.57794H16.8474V6.5437ZM33.9658 10.5152C33.9658 10.5152 21.4693 20.1357 20.8188 20.7862C20.1683 21.4709 20.1683 22.4638 20.8188 23.1486C21.4693 23.8333 22.4964 23.8333 23.1812 23.1486C23.8659 22.4638 34 10.5152 34 10.5152H33.9658Z" fill="white"/>
</svg>
