<svg width="44" height="37" viewBox="0 0 44 37" fill="none" xmlns="http://www.w3.org/2000/svg">
<rect y="0.543701" width="44" height="36" rx="4" fill="#78E236"/>
<path d="M10 6.5437V9.97227H13.4286V6.5437H10ZM16.8571 6.5437V9.97227H20.2857V6.5437H16.8571ZM23.7143 6.5437V9.97227H27.1429V6.5437H23.7143ZM30.5714 6.5437V9.97227H34V6.5437H30.5714ZM10 13.4008V16.8294H13.4286V13.4008H10ZM16.8571 13.4008V16.8294H20.2857V13.4008H16.8571ZM23.7143 13.4008V16.8294H27.1429V13.4008H23.7143ZM30.5714 13.4008V16.8294H34V13.4008H30.5714ZM10 20.258V23.6866H13.4286V20.258H10ZM16.8571 20.258V23.6866H20.2857V20.258H16.8571ZM23.7143 20.258V23.6866H27.1429V20.258H23.7143ZM30.5714 20.258V23.6866H34V20.258H30.5714ZM10 27.1151V30.5437H13.4286V27.1151H10ZM16.8571 27.1151V30.5437H20.2857V27.1151H16.8571ZM23.7143 27.1151V30.5437H27.1429V27.1151H23.7143ZM30.5714 27.1151V30.5437H34V27.1151H30.5714Z" fill="white"/>
</svg>
