<svg width="44" height="45" viewBox="0 0 44 45" fill="none" xmlns="http://www.w3.org/2000/svg">
<rect y="0.743164" width="44" height="44" rx="4" fill="white"/>
<rect x="0.5" y="1.24316" width="43" height="43" rx="3.5" stroke="black" stroke-opacity="0.2"/>
<path fill-rule="evenodd" clip-rule="evenodd" d="M22.0005 13.6437C21.8816 13.8202 21.735 14.0803 21.5169 14.4717L21.3858 14.7068C21.3761 14.7243 21.366 14.7425 21.3556 14.7614C21.2471 14.9587 21.0996 15.2268 20.856 15.4117C20.6079 15.6 20.3088 15.6658 20.0949 15.7129C20.0746 15.7174 20.055 15.7217 20.0364 15.7259L19.7818 15.7835C19.3167 15.8887 19.0268 15.9561 18.832 16.0242C18.9524 16.2052 19.1546 16.4442 19.4826 16.8277L19.6561 17.0306C19.6689 17.0455 19.6822 17.0609 19.6959 17.0768C19.8436 17.2479 20.0402 17.4754 20.131 17.7675C20.2209 18.0566 20.1905 18.3558 20.1672 18.5844C20.1651 18.6057 20.163 18.6265 20.161 18.6465L20.1348 18.9173C20.0879 19.4009 20.059 19.7138 20.0599 19.9351C20.2521 19.867 20.5153 19.7474 20.9171 19.5624L21.1554 19.4526C21.173 19.4446 21.1913 19.436 21.2105 19.427C21.4083 19.3344 21.689 19.2031 22.0005 19.2031C22.3121 19.2031 22.5927 19.3344 22.7906 19.427C22.8097 19.436 22.8281 19.4446 22.8456 19.4526L23.0839 19.5624C23.4857 19.7474 23.749 19.867 23.9412 19.9351C23.942 19.7138 23.9131 19.4009 23.8663 18.9173L23.84 18.6465C23.8381 18.6265 23.836 18.6057 23.8338 18.5844C23.8105 18.3558 23.7801 18.0566 23.87 17.7675C23.9609 17.4754 24.1574 17.2479 24.3052 17.0768C24.3189 17.0609 24.3322 17.0455 24.345 17.0306L24.5185 16.8277C24.8464 16.4442 25.0486 16.2052 25.1691 16.0242C24.9743 15.9561 24.6844 15.8887 24.2192 15.7835L23.9647 15.7259C23.946 15.7217 23.9265 15.7174 23.9062 15.7129C23.6923 15.6658 23.3931 15.6 23.1451 15.4117C22.9015 15.2268 22.754 14.9587 22.6454 14.7614C22.635 14.7425 22.625 14.7243 22.6152 14.7068L22.4842 14.4717C22.266 14.0803 22.1195 13.8201 22.0005 13.6437ZM24.1535 19.9934C24.1546 19.9934 24.1552 19.9934 24.1552 19.9935ZM19.8459 19.9935C19.8459 19.9934 19.8465 19.9934 19.8476 19.9934ZM20.8837 12.628C21.0993 12.3464 21.4515 11.9932 22.0005 11.9932C22.5496 11.9932 22.9017 12.3464 23.1174 12.628C23.3251 12.8992 23.5376 13.2807 23.7688 13.6956C23.7773 13.7108 23.7858 13.726 23.7944 13.7413L23.9254 13.9765C23.9622 14.0425 23.9907 14.0935 24.016 14.1373C24.033 14.1667 24.0463 14.1889 24.057 14.206C24.0738 14.2107 24.0951 14.2162 24.1224 14.2228C24.1694 14.2343 24.2241 14.2467 24.2957 14.2629L24.5502 14.3205C24.5676 14.3244 24.5849 14.3283 24.6022 14.3322C25.0491 14.4333 25.4662 14.5276 25.7812 14.6517C26.1225 14.7862 26.5348 15.0286 26.6937 15.5395C26.8501 16.0423 26.6576 16.4764 26.4631 16.7853C26.2805 17.0755 25.9984 17.4051 25.6921 17.7633L25.485 18.0055C25.4362 18.0625 25.3987 18.1064 25.3667 18.145C25.3406 18.1765 25.3225 18.1994 25.3096 18.2166C25.3112 18.2723 25.3184 18.3507 25.333 18.5018L25.3642 18.8235C25.4107 19.3027 25.4532 19.7402 25.4378 20.0847C25.4219 20.4426 25.3374 20.9216 24.9119 21.2446C24.4742 21.5769 23.9852 21.5121 23.6383 21.4127C23.3137 21.3197 22.9236 21.14 22.5054 20.9474C22.4892 20.9399 22.4729 20.9324 22.4566 20.9249L22.2183 20.8152C22.1512 20.7843 22.0999 20.7607 22.0554 20.741C22.0334 20.7314 22.0154 20.7237 22.0005 20.7175C21.9856 20.7237 21.9676 20.7314 21.9457 20.741C21.9011 20.7607 21.8498 20.7843 21.7828 20.8152L21.5445 20.9249C21.5282 20.9324 21.5119 20.9399 21.4956 20.9474C21.0774 21.14 20.6874 21.3197 20.3627 21.4127C20.0159 21.5121 19.5268 21.5769 19.0891 21.2446C18.6636 20.9216 18.5792 20.4426 18.5632 20.0847C18.5479 19.7402 18.5903 19.3028 18.6368 18.8235C18.6385 18.8066 18.6401 18.7896 18.6418 18.7726L18.668 18.5018C18.6827 18.3507 18.6898 18.2723 18.6915 18.2166C18.6786 18.1994 18.6605 18.1765 18.6343 18.145C18.6024 18.1064 18.5648 18.0625 18.5161 18.0055L18.3426 17.8026C18.3313 17.7894 18.3201 17.7763 18.3089 17.7633C18.0026 17.4051 17.7206 17.0755 17.5379 16.7853C17.3435 16.4764 17.151 16.0423 17.3073 15.5395C17.4662 15.0286 17.8786 14.7862 18.2199 14.6517C18.5349 14.5276 18.952 14.4333 19.3989 14.3322C19.4162 14.3283 19.4335 14.3244 19.4508 14.3205L19.7054 14.2629C19.777 14.2467 19.8317 14.2343 19.8787 14.2228C19.9059 14.2162 19.9272 14.2107 19.944 14.206C19.9548 14.1889 19.9681 14.1667 19.9851 14.1373C20.0103 14.0935 20.0388 14.0425 20.0756 13.9765L20.2067 13.7413C20.2152 13.726 20.2237 13.7108 20.2322 13.6956C20.4634 13.2807 20.676 12.8992 20.8837 12.628ZM14.0005 18.9448C14.0527 19.0411 14.1638 19.2377 14.3461 19.3761C14.542 19.5248 14.7771 19.5743 14.8748 19.5949C14.8846 19.597 14.893 19.5987 14.8998 19.6003L14.9204 19.6049L14.8877 19.6432C14.8827 19.649 14.8767 19.6559 14.8697 19.6638C14.8012 19.7419 14.6479 19.9166 14.5772 20.144C14.5074 20.3683 14.5326 20.598 14.5441 20.7029C14.5452 20.7136 14.5463 20.723 14.547 20.731L14.5481 20.7421C14.4538 20.697 14.24 20.5981 14.0005 20.5981C13.761 20.5981 13.5472 20.697 13.4529 20.7421L13.454 20.731C13.4548 20.723 13.4558 20.7136 13.457 20.7029C13.4685 20.598 13.4936 20.3683 13.4239 20.144C13.3531 19.9166 13.1999 19.7419 13.1313 19.6638C13.1244 19.6559 13.1183 19.649 13.1133 19.6432L13.0806 19.6049L13.1012 19.6003C13.1081 19.5987 13.1165 19.597 13.1262 19.5949C13.2239 19.5743 13.4591 19.5248 13.655 19.3761C13.8373 19.2377 13.9484 19.0411 14.0005 18.9448ZM12.9357 18.8688L12.7938 18.2417ZM13.4065 21.3755C13.4067 21.377 13.4068 21.3778 13.4068 21.3778ZM14.5943 21.3778C14.5942 21.3778 14.5943 21.377 14.5945 21.3755ZM13.1444 17.4576C13.273 17.2896 13.5462 16.9932 14.0005 16.9932C14.4549 16.9932 14.728 17.2896 14.8567 17.4576C14.9778 17.6157 15.0964 17.8288 15.2056 18.0248C15.2121 18.0365 15.2185 18.0481 15.225 18.0597L15.2736 18.1469L15.3581 18.1661C15.371 18.169 15.384 18.1719 15.397 18.1749C15.6079 18.2224 15.843 18.2755 16.0283 18.3485C16.2393 18.4317 16.5756 18.6131 16.7052 19.03C16.8323 19.4387 16.6671 19.7767 16.5492 19.964C16.4427 20.1332 16.2849 20.3175 16.1401 20.4867C16.1315 20.4967 16.123 20.5067 16.1145 20.5166L16.0415 20.6019L16.0531 20.7217C16.0544 20.7347 16.0557 20.7477 16.0569 20.7608C16.079 20.9875 16.1027 21.2308 16.0938 21.4306C16.0843 21.6432 16.0318 22.0277 15.683 22.2926C15.3219 22.5667 14.9287 22.4993 14.7161 22.4384C14.5251 22.3837 14.3055 22.2825 14.1083 22.1915C14.096 22.1858 14.0838 22.1802 14.0717 22.1747L14.0005 22.1419L13.9293 22.1747C13.9172 22.1802 13.905 22.1858 13.8928 22.1915C13.6955 22.2825 13.476 22.3837 13.2849 22.4384C13.0723 22.4993 12.6792 22.5667 12.3181 22.2926C11.9692 22.0277 11.9167 21.6432 11.9073 21.4306C11.8984 21.2308 11.922 20.9875 11.9441 20.7608C11.9454 20.7477 11.9466 20.7347 11.9479 20.7217L11.9595 20.6019L11.8865 20.5166C11.8781 20.5067 11.8695 20.4967 11.861 20.4867C11.7161 20.3175 11.5584 20.1332 11.4519 19.964C11.3339 19.7767 11.1687 19.4387 11.2958 19.03C11.4255 18.6131 11.7617 18.4317 11.9727 18.3485C12.1581 18.2755 12.3931 18.2224 12.604 18.1749C12.6171 18.1719 12.6301 18.169 12.6429 18.1661L12.7274 18.1469L12.7761 18.0597C12.7825 18.0481 12.789 18.0365 12.7955 18.0248C12.9046 17.8288 13.0233 17.6157 13.1444 17.4576ZM30.0005 18.9448C30.0527 19.0411 30.1637 19.2377 30.3461 19.3761C30.542 19.5248 30.7771 19.5743 30.8748 19.5949C30.8846 19.597 30.893 19.5987 30.8998 19.6003L30.9204 19.6049L30.8877 19.6432C30.8827 19.649 30.8767 19.6559 30.8697 19.6638C30.8012 19.7419 30.6479 19.9166 30.5772 20.144C30.5074 20.3683 30.5326 20.598 30.5441 20.7029C30.5452 20.7136 30.5462 20.723 30.547 20.731L30.5481 20.7421C30.4538 20.697 30.24 20.5981 30.0005 20.5981C29.761 20.5981 29.5473 20.697 29.4529 20.7421L29.454 20.731C29.4548 20.723 29.4558 20.7136 29.457 20.7029C29.4685 20.598 29.4936 20.3683 29.4239 20.144C29.3531 19.9166 29.1999 19.7419 29.1313 19.6638C29.1244 19.6559 29.1183 19.649 29.1133 19.6432L29.0806 19.6049L29.1012 19.6003C29.1081 19.5987 29.1164 19.597 29.1262 19.5949C29.2239 19.5743 29.4591 19.5248 29.655 19.3761C29.8373 19.2377 29.9484 19.0411 30.0005 18.9448ZM29.4065 21.3755C29.4068 21.3771 29.4068 21.3779 29.4068 21.3778ZM29.1444 17.4576C29.273 17.2896 29.5462 16.9932 30.0005 16.9932C30.4549 16.9932 30.728 17.2896 30.8567 17.4576C30.9778 17.6157 31.0964 17.8288 31.2056 18.0248C31.2121 18.0365 31.2185 18.0481 31.225 18.0597L31.2736 18.1469L31.3581 18.1661C31.371 18.169 31.384 18.1719 31.3971 18.1749C31.6079 18.2224 31.843 18.2755 32.0283 18.3485C32.2393 18.4317 32.5756 18.6131 32.7052 19.03C32.8323 19.4387 32.6671 19.7767 32.5492 19.964C32.4427 20.1332 32.2849 20.3175 32.1401 20.4867C32.1315 20.4967 32.123 20.5067 32.1145 20.5166L32.0415 20.6019L32.0531 20.7217C32.0544 20.7347 32.0557 20.7477 32.0569 20.7608C32.079 20.9875 32.1027 21.2308 32.0938 21.4306C32.0843 21.6432 32.0318 22.0277 31.683 22.2926C31.3219 22.5667 30.9287 22.4993 30.7161 22.4384C30.5251 22.3837 30.3056 22.2825 30.1083 22.1915C30.096 22.1859 30.0838 22.1802 30.0717 22.1747L30.0005 22.1419L29.9293 22.1747C29.9172 22.1802 29.905 22.1858 29.8928 22.1915C29.6955 22.2825 29.476 22.3837 29.2849 22.4384C29.0723 22.4993 28.6792 22.5667 28.3181 22.2926C27.9692 22.0277 27.9167 21.6432 27.9073 21.4306C27.8984 21.2308 27.922 20.9875 27.9441 20.7608C27.9454 20.7477 27.9466 20.7347 27.9479 20.7217L27.9595 20.6019L27.8865 20.5166C27.8781 20.5067 27.8695 20.4967 27.861 20.4867C27.7161 20.3175 27.5584 20.1332 27.4519 19.964C27.3339 19.7767 27.1687 19.4387 27.2958 19.03C27.4255 18.6131 27.7617 18.4317 27.9727 18.3485C28.1581 18.2755 28.3931 18.2224 28.604 18.1749C28.6171 18.1719 28.6301 18.169 28.6429 18.1661L28.7274 18.1469L28.7761 18.0597C28.7825 18.0481 28.789 18.0365 28.7955 18.0248C28.9046 17.8288 29.0233 17.6157 29.1444 17.4576ZM30.5942 21.3778C30.5942 21.3777 30.5943 21.3769 30.5945 21.3755ZM18.6844 25.1913C20.5503 24.8298 22.5476 24.911 24.1638 25.8749C24.3908 26.0103 24.6036 26.179 24.7892 26.3876C25.1651 26.8098 25.3592 27.3345 25.3684 27.8605C25.5597 27.7372 25.7512 27.6002 25.9459 27.4532L27.7531 26.088C28.6576 25.4047 29.9723 25.4045 30.877 26.0877C31.7129 26.7188 32.0462 27.8517 31.4478 28.8109C31.0224 29.4926 30.3819 30.4356 29.7301 31.0393C29.0712 31.6496 28.1334 32.1627 27.424 32.5051C26.5625 32.9209 25.6321 33.1508 24.7273 33.2973C22.8781 33.5966 20.9539 33.5508 19.1255 33.1741C18.1911 32.9816 17.2201 32.8815 16.2605 32.8815H14.0005C13.5863 32.8815 13.2505 32.5458 13.2505 32.1315C13.2505 31.7173 13.5863 31.3815 14.0005 31.3815H16.2605C17.3226 31.3815 18.395 31.4921 19.4282 31.705C21.0802 32.0453 22.8206 32.0864 24.4876 31.8166C25.3165 31.6824 26.0906 31.4831 26.772 31.1543C27.4554 30.8244 28.2238 30.3899 28.7108 29.9388C29.2033 29.4827 29.7546 28.691 30.1751 28.0169C30.3021 27.8135 30.2845 27.5199 29.9731 27.2847C29.6034 27.0056 29.0268 27.0056 28.6572 27.2849L26.85 28.65C26.1286 29.195 25.2406 29.778 24.1392 29.9537C24.0281 29.9714 23.9124 29.9877 23.7923 30.002C23.735 30.0123 23.6753 30.0191 23.6137 30.0215C23.0514 30.0773 22.4002 30.0903 21.6818 30.0225C21.2694 29.9835 20.9667 29.6177 21.0056 29.2053C21.0446 28.7929 21.4104 28.4902 21.8228 28.5291C22.4502 28.5884 23.0132 28.5753 23.4907 28.5262C23.5004 28.5253 23.5101 28.5242 23.5197 28.5232C23.5396 28.5116 23.5701 28.4905 23.6101 28.4556C23.9296 28.1768 23.9581 27.7098 23.6689 27.385C23.5956 27.3027 23.5053 27.2288 23.3954 27.1632C22.2142 26.4587 20.6368 26.341 18.9697 26.6639C17.3122 26.9851 15.6654 27.7248 14.4344 28.5979C14.0965 28.8375 13.6284 28.7578 13.3887 28.4199C13.1491 28.0821 13.2288 27.6139 13.5667 27.3743C14.965 26.3826 16.8091 25.5546 18.6844 25.1913Z" fill="#486BAF"/>
</svg>
